<svg width="32" height="32" viewBox="0 0 32 32" fill="none" xmlns="http://www.w3.org/2000/svg">
<mask id="mask0_5941_1229" style="mask-type:alpha" maskUnits="userSpaceOnUse" x="0" y="0" width="32" height="32">
<rect width="32" height="32" fill="#D9D9D9"/>
</mask>
<g mask="url(#mask0_5941_1229)">
<path d="M7.53317 23.267C8.84428 22.3263 10.1924 21.5985 11.5776 21.0837C12.9628 20.5689 14.4369 20.3115 15.9998 20.3115C17.5628 20.3115 19.0406 20.5689 20.4332 21.0837C21.8258 21.5985 23.1776 22.3263 24.4887 23.267C25.3998 22.1633 26.0647 21.0114 26.4832 19.8114C26.9017 18.6114 27.111 17.3411 27.111 16.0003C27.111 12.867 26.0424 10.2318 23.9054 8.09476C21.7684 5.95771 19.1332 4.88919 15.9998 4.88919C12.8665 4.88919 10.2313 5.95771 8.09427 8.09476C5.95723 10.2318 4.8887 12.867 4.8887 16.0003C4.8887 17.3411 5.10167 18.6114 5.5276 19.8114C5.95354 21.0114 6.62206 22.1633 7.53317 23.267ZM15.9957 17.1114C14.7022 17.1114 13.6128 16.6675 12.7276 15.7795C11.8424 14.8916 11.3998 13.8008 11.3998 12.5073C11.3998 11.2138 11.8438 10.1244 12.7317 9.23923C13.6197 8.35403 14.7104 7.91143 16.004 7.91143C17.2975 7.91143 18.3869 8.3554 19.2721 9.24336C20.1572 10.1313 20.5998 11.222 20.5998 12.5156C20.5998 13.8091 20.1559 14.8985 19.2679 15.7837C18.38 16.6688 17.2892 17.1114 15.9957 17.1114ZM16.0102 29.3337C14.1737 29.3337 12.4443 28.9837 10.8221 28.2837C9.19985 27.5837 7.78503 26.63 6.5776 25.4226C5.3702 24.2151 4.4165 22.802 3.7165 21.1833C3.0165 19.5645 2.6665 17.8349 2.6665 15.9944C2.6665 14.1539 3.0165 12.4262 3.7165 10.8114C4.4165 9.19663 5.3702 7.78552 6.5776 6.57809C7.78503 5.37069 9.19811 4.41699 10.8169 3.71699C12.4356 3.01699 14.1652 2.66699 16.0057 2.66699C17.8462 2.66699 19.5739 3.01699 21.1887 3.71699C22.8035 4.41699 24.2146 5.37069 25.4221 6.57809C26.6295 7.78552 27.5832 9.19687 28.2832 10.8122C28.9832 12.4274 29.3332 14.1534 29.3332 15.9899C29.3332 17.8265 28.9832 19.5559 28.2832 21.1781C27.5832 22.8003 26.6295 24.2151 25.4221 25.4226C24.2146 26.63 22.8033 27.5837 21.188 28.2837C19.5727 28.9837 17.8468 29.3337 16.0102 29.3337ZM15.9998 27.1115C17.2072 27.1115 18.3739 26.9355 19.4998 26.5837C20.6258 26.2318 21.711 25.6522 22.7554 24.8448C21.711 24.0966 20.6221 23.5244 19.4887 23.1281C18.3554 22.7318 17.1924 22.5337 15.9998 22.5337C14.8072 22.5337 13.6443 22.7318 12.5109 23.1281C11.3776 23.5244 10.2887 24.0966 9.24427 24.8448C10.2887 25.6522 11.3739 26.2318 12.4998 26.5837C13.6258 26.9355 14.7924 27.1115 15.9998 27.1115ZM15.9998 14.8892C16.6961 14.8892 17.2665 14.667 17.711 14.2226C18.1554 13.7781 18.3776 13.2077 18.3776 12.5114C18.3776 11.8151 18.1554 11.2448 17.711 10.8003C17.2665 10.3559 16.6961 10.1337 15.9998 10.1337C15.3035 10.1337 14.7332 10.3559 14.2887 10.8003C13.8443 11.2448 13.622 11.8151 13.622 12.5114C13.622 13.2077 13.8443 13.7781 14.2887 14.2226C14.7332 14.667 15.3035 14.8892 15.9998 14.8892Z" fill="#95E3FA"/>
</g>
</svg>
